<svg width="19" height="23" viewBox="0 0 19 23" fill="none" xmlns="http://www.w3.org/2000/svg">
<path d="M15.7689 12.3007C15.7796 11.466 16.0013 10.6476 16.4134 9.92169C16.8254 9.19573 17.4144 8.58579 18.1254 8.14862C17.6737 7.50346 17.0778 6.97252 16.3849 6.59797C15.6921 6.22341 14.9215 6.01557 14.1343 5.99094C12.455 5.81468 10.8271 6.99577 9.97139 6.99577C9.09912 6.99577 7.78162 6.00844 6.36288 6.03763C5.44521 6.06728 4.55087 6.33413 3.76699 6.81219C2.98311 7.29025 2.33643 7.96321 1.88997 8.7655C-0.0440345 12.1139 1.39855 17.035 3.25116 19.7416C4.17806 21.0669 5.26135 22.5474 6.6788 22.4949C8.06586 22.4374 8.5839 21.6104 10.2582 21.6104C11.917 21.6104 12.403 22.4949 13.8492 22.4615C15.3376 22.4373 16.2753 21.1303 17.1697 19.7924C17.8357 18.848 18.3481 17.8043 18.6881 16.6999C17.8234 16.3341 17.0855 15.7219 16.5664 14.9396C16.0473 14.1574 15.7699 13.2395 15.7689 12.3007Z" fill="white"/>
<path d="M13.0373 4.21089C13.8488 3.23668 14.2486 1.9845 14.1518 0.72027C12.912 0.850491 11.7667 1.44305 10.9442 2.37988C10.5421 2.83755 10.2341 3.36998 10.0378 3.94675C9.84158 4.52352 9.76093 5.13331 9.8005 5.74127C10.4206 5.74766 11.0341 5.61324 11.5948 5.34816C12.1555 5.08307 12.6487 4.69422 13.0373 4.21089Z" fill="white"/>
</svg>
